<mxfile host="app.diagrams.net" modified="2021-08-05T01:48:54.627Z" agent="5.0 (Windows NT 6.1; Win64; x64) AppleWebKit/537.36 (KHTML, like Gecko) Chrome/92.0.4515.107 Safari/537.36" etag="VYV_pLdbuAVXJi16d33Y" version="14.9.4" type="github">
  <diagram id="-aDOTCrXl2QW85JbIElp" name="第 1 页">
    <mxGraphModel dx="1086" dy="621" grid="1" gridSize="10" guides="1" tooltips="1" connect="1" arrows="1" fold="1" page="1" pageScale="1" pageWidth="827" pageHeight="1169" math="0" shadow="0">
      <root>
        <mxCell id="0" />
        <mxCell id="1" parent="0" />
        <mxCell id="q1j9HRJoafnkoSeO6oqL-1" value="" style="endArrow=classic;html=1;fontSize=16;" edge="1" parent="1">
          <mxGeometry width="50" height="50" relative="1" as="geometry">
            <mxPoint x="160" y="199.5" as="sourcePoint" />
            <mxPoint x="880" y="200" as="targetPoint" />
          </mxGeometry>
        </mxCell>
        <mxCell id="q1j9HRJoafnkoSeO6oqL-2" value="" style="endArrow=classic;html=1;fontSize=16;" edge="1" parent="1">
          <mxGeometry width="50" height="50" relative="1" as="geometry">
            <mxPoint x="160" y="319.5" as="sourcePoint" />
            <mxPoint x="880" y="320" as="targetPoint" />
          </mxGeometry>
        </mxCell>
        <mxCell id="q1j9HRJoafnkoSeO6oqL-3" value="" style="endArrow=classic;html=1;fontSize=16;" edge="1" parent="1">
          <mxGeometry width="50" height="50" relative="1" as="geometry">
            <mxPoint x="160" y="439.5" as="sourcePoint" />
            <mxPoint x="880" y="440" as="targetPoint" />
          </mxGeometry>
        </mxCell>
        <mxCell id="q1j9HRJoafnkoSeO6oqL-23" value="Text" style="edgeLabel;html=1;align=center;verticalAlign=middle;resizable=0;points=[];" vertex="1" connectable="0" parent="q1j9HRJoafnkoSeO6oqL-3">
          <mxGeometry x="0.3" y="-2" relative="1" as="geometry">
            <mxPoint x="-90" as="offset" />
          </mxGeometry>
        </mxCell>
        <mxCell id="q1j9HRJoafnkoSeO6oqL-4" value="事务 A" style="verticalLabelPosition=bottom;html=1;verticalAlign=top;align=center;strokeColor=none;fillColor=#00BEF2;shape=mxgraph.azure.user;fontSize=16;" vertex="1" parent="1">
          <mxGeometry x="90" y="170" width="47.5" height="50" as="geometry" />
        </mxCell>
        <mxCell id="q1j9HRJoafnkoSeO6oqL-5" value="数据库" style="aspect=fixed;perimeter=ellipsePerimeter;html=1;align=center;shadow=0;dashed=0;spacingTop=3;image;image=img/lib/active_directory/database.svg;fontSize=16;" vertex="1" parent="1">
          <mxGeometry x="73.21000000000001" y="290" width="81.08" height="60" as="geometry" />
        </mxCell>
        <mxCell id="q1j9HRJoafnkoSeO6oqL-6" value="事务 B" style="verticalLabelPosition=bottom;html=1;verticalAlign=top;align=center;strokeColor=#C73500;fillColor=#fa6800;shape=mxgraph.azure.user;fontColor=#000000;fontSize=16;" vertex="1" parent="1">
          <mxGeometry x="90" y="410" width="47.5" height="50" as="geometry" />
        </mxCell>
        <mxCell id="q1j9HRJoafnkoSeO6oqL-7" value="启动事务" style="rounded=1;whiteSpace=wrap;html=1;fontSize=16;fillColor=#e1d5e7;strokeColor=#9673a6;" vertex="1" parent="1">
          <mxGeometry x="170" y="180" width="90" height="40" as="geometry" />
        </mxCell>
        <mxCell id="q1j9HRJoafnkoSeO6oqL-8" value="get" style="rounded=0;orthogonalLoop=1;jettySize=auto;html=1;entryX=0.344;entryY=0.05;entryDx=0;entryDy=0;fontSize=16;exitX=0.062;exitY=1.125;exitDx=0;exitDy=0;exitPerimeter=0;entryPerimeter=0;" edge="1" parent="1" source="q1j9HRJoafnkoSeO6oqL-9" target="q1j9HRJoafnkoSeO6oqL-11">
          <mxGeometry relative="1" as="geometry" />
        </mxCell>
        <mxCell id="q1j9HRJoafnkoSeO6oqL-9" value="读取余额" style="rounded=1;whiteSpace=wrap;html=1;fontSize=16;fillColor=#dae8fc;strokeColor=#6c8ebf;" vertex="1" parent="1">
          <mxGeometry x="290" y="180" width="130" height="40" as="geometry" />
        </mxCell>
        <mxCell id="q1j9HRJoafnkoSeO6oqL-10" value="&lt;font color=&quot;#ff0000&quot;&gt;&lt;b&gt;100 万&lt;/b&gt;&lt;/font&gt;" style="edgeStyle=none;rounded=0;orthogonalLoop=1;jettySize=auto;html=1;entryX=1;entryY=1;entryDx=0;entryDy=0;fontSize=16;" edge="1" parent="1" source="q1j9HRJoafnkoSeO6oqL-11" target="q1j9HRJoafnkoSeO6oqL-9">
          <mxGeometry relative="1" as="geometry" />
        </mxCell>
        <mxCell id="q1j9HRJoafnkoSeO6oqL-11" value="余额 100 万" style="rounded=1;whiteSpace=wrap;html=1;fontSize=16;fillColor=#cdeb8b;strokeColor=#36393d;" vertex="1" parent="1">
          <mxGeometry x="305" y="300" width="100" height="40" as="geometry" />
        </mxCell>
        <mxCell id="q1j9HRJoafnkoSeO6oqL-15" value="&lt;font&gt;&lt;span&gt;ok&lt;/span&gt;&lt;/font&gt;" style="edgeStyle=none;rounded=0;orthogonalLoop=1;jettySize=auto;html=1;entryX=0.638;entryY=0;entryDx=0;entryDy=0;fontSize=16;entryPerimeter=0;fontStyle=1" edge="1" parent="1" target="q1j9HRJoafnkoSeO6oqL-19">
          <mxGeometry relative="1" as="geometry">
            <mxPoint x="570" y="340" as="sourcePoint" />
          </mxGeometry>
        </mxCell>
        <mxCell id="q1j9HRJoafnkoSeO6oqL-16" value="余额变为 200 万" style="rounded=1;whiteSpace=wrap;html=1;fontSize=16;fillColor=#ffff88;strokeColor=#36393d;" vertex="1" parent="1">
          <mxGeometry x="470" y="300" width="210" height="40" as="geometry" />
        </mxCell>
        <mxCell id="q1j9HRJoafnkoSeO6oqL-17" value="启动事务" style="rounded=1;whiteSpace=wrap;html=1;fontSize=16;fillColor=#e1d5e7;strokeColor=#9673a6;" vertex="1" parent="1">
          <mxGeometry x="170" y="420" width="90" height="40" as="geometry" />
        </mxCell>
        <mxCell id="q1j9HRJoafnkoSeO6oqL-18" value="set" style="edgeStyle=none;rounded=0;orthogonalLoop=1;jettySize=auto;html=1;entryX=0.5;entryY=1;entryDx=0;entryDy=0;fontSize=16;exitX=0.25;exitY=0;exitDx=0;exitDy=0;" edge="1" parent="1" source="q1j9HRJoafnkoSeO6oqL-19">
          <mxGeometry relative="1" as="geometry">
            <mxPoint x="485" y="340" as="targetPoint" />
          </mxGeometry>
        </mxCell>
        <mxCell id="q1j9HRJoafnkoSeO6oqL-19" value="更新余额" style="rounded=1;whiteSpace=wrap;html=1;fontSize=16;fillColor=#ffe6cc;strokeColor=#d79b00;" vertex="1" parent="1">
          <mxGeometry x="470" y="420" width="130" height="40" as="geometry" />
        </mxCell>
        <mxCell id="q1j9HRJoafnkoSeO6oqL-24" value="get" style="rounded=0;orthogonalLoop=1;jettySize=auto;html=1;entryX=0.344;entryY=0.05;entryDx=0;entryDy=0;fontSize=16;exitX=0.062;exitY=1.125;exitDx=0;exitDy=0;exitPerimeter=0;entryPerimeter=0;" edge="1" parent="1" source="q1j9HRJoafnkoSeO6oqL-25">
          <mxGeometry relative="1" as="geometry">
            <mxPoint x="629.4000000000001" y="300" as="targetPoint" />
          </mxGeometry>
        </mxCell>
        <mxCell id="q1j9HRJoafnkoSeO6oqL-25" value="读取余额" style="rounded=1;whiteSpace=wrap;html=1;fontSize=16;fillColor=#dae8fc;strokeColor=#6c8ebf;" vertex="1" parent="1">
          <mxGeometry x="580" y="178" width="130" height="40" as="geometry" />
        </mxCell>
        <mxCell id="q1j9HRJoafnkoSeO6oqL-26" value="&lt;font color=&quot;#ff0000&quot;&gt;&lt;b&gt;200 万&lt;/b&gt;&lt;/font&gt;" style="edgeStyle=none;rounded=0;orthogonalLoop=1;jettySize=auto;html=1;entryX=1;entryY=1;entryDx=0;entryDy=0;fontSize=16;" edge="1" parent="1" target="q1j9HRJoafnkoSeO6oqL-25">
          <mxGeometry relative="1" as="geometry">
            <mxPoint x="658" y="298" as="sourcePoint" />
          </mxGeometry>
        </mxCell>
        <mxCell id="q1j9HRJoafnkoSeO6oqL-27" value="" style="shape=curlyBracket;whiteSpace=wrap;html=1;rounded=1;flipH=1;fontColor=#000000;rotation=-90;" vertex="1" parent="1">
          <mxGeometry x="485" width="20" height="320" as="geometry" />
        </mxCell>
        <mxCell id="q1j9HRJoafnkoSeO6oqL-28" value="前后读的两次数据不一样" style="text;html=1;align=center;verticalAlign=middle;resizable=0;points=[];autosize=1;strokeColor=#d6b656;fontSize=16;fillColor=#fff2cc;gradientColor=#ffd966;" vertex="1" parent="1">
          <mxGeometry x="400" y="120" width="190" height="20" as="geometry" />
        </mxCell>
      </root>
    </mxGraphModel>
  </diagram>
</mxfile>
